<?xml version="1.0" encoding="UTF-8"?>
<svg width="12px" height="10px" viewBox="0 0 12 10" version="1.1" xmlns="http://www.w3.org/2000/svg" xmlns:xlink="http://www.w3.org/1999/xlink">
    <!-- Generator: Sketch 51.1 (57501) - http://www.bohemiancoding.com/sketch -->
    <title>icon / arrow-right</title>
    <desc>Created with Sketch.</desc>
    <defs>
        <path d="M13.8,8.46666667 L9.8,12.4666667 C9.66666667,12.6 9.53333333,12.6666667 9.33333333,12.6666667 C9.13333333,12.6666667 9,12.6 8.86666667,12.4666667 C8.6,12.2 8.6,11.8 8.86666667,11.5333333 L11.7333333,8.66666667 L2.66666667,8.66666667 C2.26666667,8.66666667 2,8.4 2,8 C2,7.6 2.26666667,7.33333333 2.66666667,7.33333333 L11.7333333,7.33333333 L8.86666667,4.46666667 C8.6,4.2 8.6,3.8 8.86666667,3.53333333 C9.13333333,3.26666667 9.53333333,3.26666667 9.8,3.53333333 L13.8,7.53333333 C13.8666667,7.6 13.9333333,7.66666667 13.9333333,7.73333333 C14,7.86666667 14,8.06666667 13.9333333,8.26666667 C13.9333333,8.33333333 13.8666667,8.4 13.8,8.46666667 Z" id="path-1"></path>
    </defs>
    <g id="Desktop" stroke="none" stroke-width="1" fill="none" fill-rule="evenodd">
        <g id="1.0---Home" transform="translate(-1086.000000, -1330.000000)">
            <g id="section1" transform="translate(370.000000, 1051.000000)">
                <g id="link" transform="translate(600.000000, 252.000000)">
                    <g id="icon-/-arrow-right" transform="translate(114.000000, 24.000000)">
                        <mask id="mask-2" fill="white">
                            <use xlink:href="#path-1"></use>
                        </mask>
                        <use id="Mask" fill="#000000" fill-rule="nonzero" xlink:href="#path-1"></use>
                        <g id="color-/-KSG-/-blue" mask="url(#mask-2)" fill="#172E7C" fill-rule="evenodd">
                            <rect id="Shape" x="0" y="0" width="16" height="16"></rect>
                        </g>
                    </g>
                </g>
            </g>
        </g>
    </g>
</svg>