<?xml version="1.0" encoding="UTF-8"?>
<svg width="12px" height="10px" viewBox="0 0 12 10" version="1.1" xmlns="http://www.w3.org/2000/svg" xmlns:xlink="http://www.w3.org/1999/xlink">
    <!-- Generator: Sketch 52.3 (67297) - http://www.bohemiancoding.com/sketch -->
    <title>arrow-right</title>
    <desc>Created with Sketch.</desc>
    <defs>
        <path d="M11.8,5.46666667 L7.8,9.4666667 C7.66666667,9.6 7.53333333,9.6666667 7.33333333,9.6666667 C7.13333333,9.6666667 7,9.6 6.86666667,9.4666667 C6.6,9.2 6.6,8.8 6.86666667,8.5333333 L9.7333333,5.66666667 L0.66666667,5.66666667 C0.26666667,5.66666667 0,5.4 0,5 C0,4.6 0.26666667,4.33333333 0.66666667,4.33333333 L9.7333333,4.33333333 L6.86666667,1.46666667 C6.6,1.2 6.6,0.8 6.86666667,0.53333333 C7.13333333,0.26666667 7.53333333,0.26666667 7.8,0.53333333 L11.8,4.53333333 C11.8666667,4.6 11.9333333,4.66666667 11.9333333,4.73333333 C12,4.86666667 12,5.06666667 11.9333333,5.26666667 C11.9333333,5.33333333 11.8666667,5.4 11.8,5.46666667 Z" id="path-1"></path>
    </defs>
    <g id="Page-1" stroke="none" stroke-width="1" fill="none" fill-rule="evenodd">
        <g id="arrow-right">
            <g id="Mask" fill="#000000">
                <path d="M11.8,5.46666667 L7.8,9.4666667 C7.66666667,9.6 7.53333333,9.6666667 7.33333333,9.6666667 C7.13333333,9.6666667 7,9.6 6.86666667,9.4666667 C6.6,9.2 6.6,8.8 6.86666667,8.5333333 L9.7333333,5.66666667 L0.66666667,5.66666667 C0.26666667,5.66666667 0,5.4 0,5 C0,4.6 0.26666667,4.33333333 0.66666667,4.33333333 L9.7333333,4.33333333 L6.86666667,1.46666667 C6.6,1.2 6.6,0.8 6.86666667,0.53333333 C7.13333333,0.26666667 7.53333333,0.26666667 7.8,0.53333333 L11.8,4.53333333 C11.8666667,4.6 11.9333333,4.66666667 11.9333333,4.73333333 C12,4.86666667 12,5.06666667 11.9333333,5.26666667 C11.9333333,5.33333333 11.8666667,5.4 11.8,5.46666667 Z" id="path-1"></path>
            </g>
            <g id="color-/-KSG-/-blue-Clipped">
                <mask id="mask-2" fill="white">
                    <use xlink:href="#path-1"></use>
                </mask>
                <g id="path-1"></g>
                <g id="color-/-KSG-/-blue" mask="url(#mask-2)" fill="#FFFFFF">
                    <g transform="translate(-2.000000, -3.000000)" id="Shape">
                        <rect x="0" y="0" width="16" height="16"></rect>
                    </g>
                </g>
            </g>
        </g>
    </g>
</svg>