<?xml version="1.0" encoding="UTF-8"?>
<svg width="299px" height="120px" viewBox="0 0 299 120" version="1.1" xmlns="http://www.w3.org/2000/svg" xmlns:xlink="http://www.w3.org/1999/xlink">
    <!-- Generator: Sketch 51.1 (57501) - http://www.bohemiancoding.com/sketch -->
    <title>logo</title>
    <desc>Created with Sketch.</desc>
    <defs></defs>
    <g id="Desktop" stroke="none" stroke-width="1" fill="none" fill-rule="evenodd">
        <g id="1.0---Home" transform="translate(-370.000000, -831.000000)" fill-rule="nonzero">
            <g id="header" transform="translate(0.000000, 801.000000)">
                <g id="logo" transform="translate(370.000000, 30.000000)">
                    <path d="M107.260285,0 L107.243681,25.9568766 L80.240113,31.3981576 L80.2437714,34.4499258 L107.26,29.0864303 L107.258973,114.927279 C110.471455,114.929577 107.258973,114.927279 110.471455,114.929577 L110.472482,28.4426751 L136.830508,22.9049121 C136.823754,19.9495418 136.82685,20.8268494 136.823754,19.9495418 L110.378316,25.3364431 L110.472338,0.00221443246 L107.260285,0 Z" id="path5755" fill="#FFBB00"></path>
                    <g id="text5594" transform="translate(0.000000, 39.718310)" fill="#172E7C">
                        <polygon id="path5600" points="69.3694525 1.27648479 72.2946582 1.27648479 72.2946582 10.3699555 81.9970729 1.27648479 85.7621883 1.27648479 75.0316092 11.3066628 86.5296953 22.7923918 82.6776894 22.7923918 72.2946582 12.4307451 72.2946582 22.7923918 69.3694525 22.7923918"></polygon>
                        <path d="M95.5659729,14.6788817 C93.4130996,14.6788817 91.9215342,14.9238718 91.0912765,15.4138521 C90.2610208,15.9038324 89.8458929,16.7396806 89.8458929,17.9213966 C89.8458929,18.8629285 90.1548253,19.6123073 90.7726902,20.1695332 C91.4002099,20.7171659 92.2497744,20.9909823 93.3213836,20.9909823 C94.7984687,20.9909823 95.9811017,20.4721758 96.8692826,19.4345628 C97.7671183,18.3873566 98.2160362,16.9990885 98.2160362,15.2697583 L98.2160362,14.6788817 L95.5659729,14.6788817 Z M100.880579,13.5836349 L100.880579,22.7923918 L98.2160362,22.7923918 L98.2160362,20.3424904 C97.6078242,21.322451 96.8499739,22.0478096 95.9424853,22.5185662 C95.0349947,22.9797296 93.9247681,23.2103113 92.6118055,23.2103113 C90.9512921,23.2103113 89.6286746,22.7491479 88.643953,21.8268211 C87.6688845,20.8949011 87.1813502,19.6507361 87.1813502,18.0943259 C87.1813502,16.2785265 87.7895612,14.9094727 89.0059832,13.9871645 C90.2320582,13.0648377 92.0566912,12.6036744 94.4798824,12.6036744 L98.2160362,12.6036744 L98.2160362,12.3443223 C98.2160362,11.1241775 97.8105622,10.1826549 96.9996141,9.51975465 C96.1983191,8.84722394 95.0687838,8.51095859 93.6110083,8.51095859 C92.68421,8.51095859 91.7815478,8.62144817 90.9030217,8.84242732 C90.0244938,9.06338789 89.1797558,9.39483803 88.3688078,9.83677775 L88.3688078,7.38687634 C89.3438764,7.01220085 90.2899824,6.73358789 91.2071258,6.55103746 C92.1242712,6.3588938 93.0172795,6.26282197 93.8861508,6.26282197 C96.232109,6.26282197 97.9843366,6.86808845 99.1428335,8.07862141 C100.30133,9.28915437 100.880579,11.1241775 100.880579,13.5836907 L100.880579,13.5836349 Z" id="path5602"></path>
                        <path d="M130.291854,13.0504293 L130.291854,22.7923918 L127.627311,22.7923918 L127.627311,13.13688 C127.627311,11.6093054 127.328033,10.4660273 126.729476,9.70704592 C126.130919,8.94804592 125.233083,8.56854592 124.035969,8.56854592 C122.597503,8.56854592 121.463141,9.02490338 120.632883,9.93761831 C119.802628,10.8503146 119.3875,12.0944797 119.3875,13.6701135 L119.3875,22.7923918 L116.708475,22.7923918 L116.708475,0.36858507 L119.3875,0.36858507 L119.3875,9.15939465 C120.024672,8.18904592 120.772869,7.46368732 121.632089,6.98331887 C122.50096,6.50295042 123.500164,6.2627662 124.6297,6.2627662 C126.49295,6.2627662 127.902455,6.83921577 128.858216,7.99211493 C129.813975,9.13540225 130.291854,10.821507 130.291854,13.0504293 Z" id="path5606"></path>
                        <path d="M141.920275,8.51090282 C140.491462,8.51090282 139.361927,9.06813803 138.531671,10.1826085 C137.701414,11.287467 137.286285,12.8054392 137.286285,14.7365248 C137.286285,16.667629 137.696586,18.1904163 138.517189,19.3048868 C139.347445,20.4097268 140.481807,20.9621468 141.920275,20.9621468 C143.339435,20.9621468 144.464142,20.4049208 145.294398,19.290469 C146.124654,18.1759986 146.539782,16.6580172 146.539782,14.7365248 C146.539782,12.8246442 146.124654,11.311478 145.294398,10.1970262 C144.464142,9.07294394 143.339435,8.51090282 141.920275,8.51090282 Z M141.920275,6.2627662 C144.237268,6.2627662 146.057074,7.01214507 147.379691,8.51090282 C148.702311,10.0096606 149.363621,12.0848679 149.363621,14.7365248 C149.363621,17.3785699 148.702311,19.4537772 147.379691,20.9621468 C146.057074,22.4609231 144.237268,23.2103113 141.920275,23.2103113 C139.593626,23.2103113 137.768993,22.4609231 136.446375,20.9621468 C135.133411,19.4537772 134.476929,17.3785699 134.476929,14.7365248 C134.476929,12.0848679 135.133411,10.0096606 136.446375,8.51090282 C137.768993,7.01214507 139.593626,6.2627662 141.920275,6.2627662 Z" id="path5608"></path>
                        <polygon id="path5610" points="153.765909 0.36858507 156.430451 0.36858507 156.430451 22.7923918 153.765909 22.7923918"></polygon>
                        <path d="M161.991235,6.65185014 L164.655781,6.65185014 L164.655781,22.7923918 L161.991235,22.7923918 L161.991235,6.65185014 Z M161.991235,0.36858507 L164.655781,0.36858507 L164.655781,3.7263862 L161.991235,3.7263862 L161.991235,0.36858507 Z" id="path5612"></path>
                        <path d="M180.556194,7.12744056 L180.556194,9.63498507 C179.803155,9.25067915 179.021163,8.96245437 178.210218,8.7703107 C177.399255,8.57816704 176.559335,8.48209521 175.690458,8.48209521 C174.367841,8.48209521 173.373468,8.6838507 172.707341,9.08736169 C172.050858,9.49087268 171.722617,10.0961392 171.722617,10.9031611 C171.722617,11.5180394 171.959143,12.0032138 172.432195,12.3586842 C172.905257,12.7045614 173.85619,13.0360208 175.284996,13.3530625 L176.197308,13.5549668 C178.089542,13.9584777 179.431473,14.5301214 180.2231,15.2698977 C181.024409,16.0000623 181.425063,17.0232482 181.425063,18.3394555 C181.425063,19.8382318 180.826502,21.0247538 179.62938,21.8990214 C178.441921,22.7733076 176.805535,23.2104507 174.720223,23.2104507 C173.851352,23.2104507 172.943864,23.124 171.99776,22.9510986 C171.061308,22.7876789 170.071759,22.5378828 169.02911,22.2017104 L169.02911,19.4635935 C170.013833,19.9727789 170.984075,20.3570755 171.939834,20.6164834 C172.895598,20.8662794 173.841702,20.9911775 174.778146,20.9911775 C176.033197,20.9911775 176.998622,20.7798101 177.674421,20.3570755 C178.350202,19.9247476 178.688092,19.3194811 178.688092,18.5412761 C178.688092,17.8207234 178.441911,17.2682941 177.94955,16.8839882 C177.466846,16.4997008 176.400063,16.1298127 174.749199,15.7743237 L173.822379,15.5581969 C172.171529,15.2123197 170.979247,14.6839107 170.245532,13.9729699 C169.511817,13.2523986 169.144959,12.2676321 169.144959,11.0186704 C169.144959,9.50068901 169.685591,8.32858479 170.766855,7.50235775 C171.848119,6.67611211 173.383133,6.2629893 175.371895,6.2629893 C176.356618,6.2629893 177.283418,6.33503155 178.152295,6.47911606 C179.021172,6.62320056 179.822472,6.8393738 180.556194,7.12763577 L180.556194,7.12744056 Z" id="path5614"></path>
                        <path d="M197.354491,7.27153437 L197.354491,9.75027127 C196.601461,9.33714845 195.84361,9.0297093 195.08094,8.8279538 C194.32791,8.61658648 193.56523,8.51090282 192.792901,8.51090282 C191.064787,8.51090282 189.722847,9.0585262 188.767081,10.153773 C187.811314,11.2394265 187.333431,12.7670104 187.333431,14.7365248 C187.333431,16.7060577 187.811314,18.2384476 188.767081,19.3336944 C189.722847,20.4193293 191.064787,20.9621468 192.792901,20.9621468 C193.56523,20.9621468 194.32791,20.861269 195.08094,20.6595135 C195.84361,20.4481648 196.601461,20.135929 197.354491,19.7228062 L197.354491,22.1727076 C196.611119,22.5185662 195.838781,22.7779648 195.037477,22.9509034 C194.245849,23.1238048 193.40111,23.2102555 192.503257,23.2102555 C190.060747,23.2102555 188.120257,22.4464589 186.681787,20.9188656 C185.243299,19.391291 184.524055,17.3304921 184.524055,14.736469 C184.524055,12.1040358 185.248128,10.0336344 186.696275,8.52526479 C188.154043,7.01689521 190.147636,6.26271042 192.677055,6.26271042 C193.497658,6.26271042 194.298953,6.34916113 195.08094,6.52206254 C195.862927,6.68529634 196.620778,6.9350831 197.354491,7.27142282 L197.354491,7.27153437 Z" id="path5616"></path>
                        <path d="M215.499575,13.0504293 L215.499575,22.7923918 L212.834993,22.7923918 L212.834993,13.13688 C212.834993,11.6093054 212.535718,10.4660273 211.937168,9.70704592 C211.338581,8.94804592 210.440738,8.56854592 209.243639,8.56854592 C207.805169,8.56854592 206.670804,9.02490338 205.840542,9.93761831 C205.010281,10.8503146 204.59515,12.0944797 204.59515,13.6701135 L204.59515,22.7923918 L201.916109,22.7923918 L201.916109,0.36858507 L204.59515,0.36858507 L204.59515,9.15939465 C205.232316,8.18904592 205.980517,7.46368732 206.839754,6.98331887 C207.708631,6.50295042 208.707842,6.2627662 209.837387,6.2627662 C211.700646,6.2627662 213.110159,6.83921577 214.065925,7.99211493 C215.021692,9.13540225 215.499575,10.821507 215.499575,13.0504293 Z" id="path5618"></path>
                        <path d="M234.716225,14.0591975 L234.716225,15.356209 L222.46505,15.356209 C222.580878,17.1816203 223.131172,18.5747037 224.115933,19.5354592 C225.110315,20.4865842 226.490861,20.9621468 228.257572,20.9621468 C229.280929,20.9621468 230.270491,20.837258 231.226258,20.5874806 C232.191664,20.3376845 233.147431,19.9629904 234.093557,19.4633983 L234.093557,21.9709428 C233.137791,22.3744538 232.157887,22.681893 231.153847,22.8932603 C230.149806,23.1046276 229.131287,23.2103113 228.09829,23.2103113 C225.510958,23.2103113 223.459441,22.4609231 221.94374,20.9621468 C220.43768,19.463389 219.684649,17.4362223 219.684649,14.8806465 C219.684649,12.2386014 220.399064,10.1441797 221.827894,8.59738141 C223.266364,7.04097127 225.202024,6.2627662 227.634876,6.2627662 C229.816736,6.2627662 231.540011,6.96410451 232.804702,8.36678113 C234.079051,9.75986451 234.716225,11.6573366 234.716225,14.0591975 Z M232.051671,13.2810017 C232.032429,11.8302845 231.622127,10.6725887 230.820767,9.80791437 C230.029121,8.94324 228.976816,8.51090282 227.663851,8.51090282 C226.177108,8.51090282 224.98481,8.92883155 224.086957,9.76468901 C223.198782,10.6005279 222.687112,11.777438 222.551949,13.2954194 L232.051671,13.2810017 Z" id="path5620"></path>
                        <path d="M14.1086611,24.8266327 L14.1086611,27.6656459 C12.9984345,27.1372369 11.9509595,26.7433285 10.9662361,26.4839206 C9.98151457,26.2245313 9.03058207,26.0948366 8.11343861,26.0948366 C6.52050512,26.0948366 5.28960181,26.4022758 4.42072866,27.0171541 C3.56151032,27.6320324 3.13190115,28.5063093 3.13190115,29.6399848 C3.13190115,30.5911099 3.41669844,31.3116625 3.98629302,31.8016428 C4.56554054,32.2820299 5.65645845,32.6711324 7.25904674,32.9689504 L9.02575374,33.3292268 C11.2075914,33.7423496 12.8150062,34.4725234 13.847998,35.5197482 C14.8906466,36.5573425 15.4119708,37.9504166 15.4119708,39.6989704 C15.4119708,41.7837896 14.7072182,43.36422 13.2977131,44.4402617 C11.8978627,45.5162848 9.8415301,46.0542963 7.12871521,46.0542963 C6.1053763,46.0542963 5.01445839,45.9390101 3.85596148,45.7084377 C2.70711751,45.4778654 1.51483064,45.1368034 0.279100847,44.6852518 L0.279100847,41.687727 C1.46656032,42.3506273 2.62988464,42.8502101 3.76907379,43.1864755 C4.90826295,43.5227408 6.02814342,43.6908735 7.12871521,43.6908735 C8.79888157,43.6908735 10.08771,43.36422 10.9952005,42.710913 C11.9026892,42.0576059 12.3564335,41.1256859 12.3564335,39.915153 C12.3564335,38.8583349 12.0281924,38.0320893 11.3717101,37.4364161 C10.7248827,36.8407614 9.65809991,36.3940158 8.17136187,36.0961792 L6.39017266,35.7503206 C4.20833684,35.3179741 2.62988464,34.6406468 1.65481604,33.7183386 C0.679747454,32.7960304 0.192213158,31.5134366 0.192213158,29.8705572 C0.192213158,27.9682885 0.863175773,26.4695307 2.205101,25.3742839 C3.55668104,24.2790186 5.41510407,23.7313859 7.78037007,23.7313859 C8.79405603,23.7313859 9.82704975,23.8226704 10.8793512,24.0052394 C11.9316527,24.1878085 13.0080893,24.4616155 14.1086611,24.8266606 L14.1086611,24.8266327 Z" id="path5622"></path>
                        <path d="M22.4932838,24.9131113 L22.4932838,29.4958631 L27.9816652,29.4958631 L27.9816652,31.5566527 L22.4932838,31.5566527 L22.4932838,40.3186546 C22.4932838,41.6348806 22.6718857,42.4803406 23.0290894,42.8550346 C23.3959479,43.2297101 24.1344904,43.4170479 25.244717,43.4170479 L27.9816652,43.4170479 L27.9816652,45.6363769 L25.244717,45.6363769 C23.1883844,45.6363769 21.7692254,45.2568862 20.9872399,44.4979048 C20.2052526,43.7293115 19.8142589,42.3362282 19.8142589,40.3186546 L19.8142589,31.5566527 L17.8592971,31.5566527 L17.8592971,29.4958631 L19.8142589,29.4958631 L19.8142589,24.9131113 L22.4932838,24.9131113 Z" id="path5624"></path>
                        <path d="M31.2254573,39.2666332 L31.2254573,29.4958631 L33.89,29.4958631 L33.89,39.1657648 C33.89,40.6933394 34.1892786,41.8414327 34.7878357,42.6100445 C35.3863929,43.3690259 36.2842286,43.7485166 37.4813429,43.7485166 C38.9198087,43.7485166 40.0541705,43.2921592 40.8844281,42.3794442 C41.7243387,41.4667479 42.144294,40.2225828 42.144294,38.646949 L42.144294,29.4958631 L44.8088367,29.4958631 L44.8088367,45.6363769 L42.144294,45.6363769 L42.144294,43.1576679 C41.4974665,44.1376285 40.7444427,44.867793 39.8852225,45.3481614 C39.035659,45.818918 38.04611,46.0542963 36.9165757,46.0542963 C35.0533243,46.0542963 33.6389918,45.4778561 32.673578,44.3249755 C31.7081642,43.1720763 31.2254573,41.4859623 31.2254573,39.2666332 Z" id="path5626"></path>
                        <path d="M60.9988356,31.9457645 L60.9988356,23.212598 L63.6633783,23.212598 L63.6633783,45.6363769 L60.9988356,45.6363769 L60.9988356,43.215311 C60.4388939,44.1760479 59.7293139,44.8918039 58.8700956,45.3625792 C58.0205302,45.8237239 56.9971913,46.0542963 55.8000789,46.0542963 C53.8402869,46.0542963 52.242526,45.2760913 51.0067962,43.7196811 C49.7807194,42.1632896 49.1676809,40.1169085 49.1676809,37.5805377 C49.1676809,35.044167 49.7807194,32.9977766 51.0067962,31.4413665 C52.242526,29.8849563 53.8402869,29.1067513 55.8000789,29.1067513 C56.9971913,29.1067513 58.0205302,29.3421389 58.8700956,29.8129141 C59.7293139,30.2740775 60.4388939,30.9850276 60.9988356,31.9457645 Z M51.9191113,37.5805377 C51.9191113,39.530847 52.3197589,41.0632369 53.121054,42.1777073 C53.932002,43.2825659 55.0422286,43.8349952 56.4517337,43.8349952 C57.8612389,43.8349952 58.9714655,43.2825659 59.7824135,42.1777073 C60.5933615,41.0632369 60.9988356,39.530847 60.9988356,37.5805377 C60.9988356,35.6302285 60.5933615,34.1026445 59.7824135,32.9977859 C58.9714655,31.8833155 57.8612389,31.3260803 56.4517337,31.3260803 C55.0422286,31.3260803 53.932002,31.8833155 53.121054,32.9977859 C52.3197589,34.1026445 51.9191113,35.6302285 51.9191113,37.5805377 Z" id="path5628"></path>
                        <path d="M83.0247665,36.9032104 L83.0247665,38.200222 L70.7736585,38.200222 C70.889505,40.0256332 71.4397909,41.4187073 72.4245162,42.3794442 C73.4188944,43.3305879 74.799437,43.8061597 76.566144,43.8061597 C77.5894848,43.8061597 78.5790346,43.6812617 79.5347936,43.4314656 C80.5002074,43.1816696 81.4559682,42.8069848 82.4020761,42.3074113 L82.4020761,44.8149558 C81.4463153,45.2184668 80.4664193,45.5258966 79.4623881,45.7372454 C78.458357,45.9486127 77.4398445,46.0542963 76.4068508,46.0542963 C73.819541,46.0542963 71.7680358,45.3049175 70.2523352,43.8061597 C68.7462894,42.307402 67.9932665,40.2802352 67.9932665,37.7246594 C67.9932665,35.0825958 68.7076729,32.9881648 70.1364858,31.4413665 C71.5749536,29.8849563 73.5106095,29.1067513 75.9434536,29.1067513 C78.1252894,29.1067513 79.8485535,29.8080989 81.1132458,31.2107941 C82.387593,32.6038775 83.0247665,34.5013496 83.0247665,36.9032104 Z M80.3602238,36.1250146 C80.3409254,34.6742789 79.930624,33.5165738 79.1293196,32.6518994 C78.3376793,31.7872437 77.2853778,31.3549158 75.9724152,31.3549158 C74.4856771,31.3549158 73.2933903,31.7728352 72.3955545,32.6086741 C71.5073736,33.4445315 70.9957042,34.6214417 70.8605462,36.1394045 L80.3602238,36.1250146 Z" id="path5630"></path>
                        <path d="M100.880105,35.8944144 L100.880105,45.6363769 L98.2155626,45.6363769 L98.2155626,35.980893 C98.2155626,34.4533183 97.916284,33.310031 97.3177269,32.551031 C96.7191697,31.7920496 95.821334,31.4125589 94.6242197,31.4125589 C93.1857539,31.4125589 92.0513921,31.868907 91.2211345,32.7816034 C90.3908787,33.6943183 89.9757508,34.9384834 89.9757508,36.5140986 L89.9757508,45.6363769 L87.2967259,45.6363769 L87.2967259,29.4958631 L89.9757508,29.4958631 L89.9757508,32.0034076 C90.6129235,31.0330589 91.3611199,30.3077003 92.2203401,29.8273318 C93.0892132,29.3469448 94.088417,29.1067513 95.2179513,29.1067513 C97.0812008,29.1067513 98.490706,29.6832008 99.4464668,30.8361 C100.402226,31.9793873 100.880105,33.6654921 100.880105,35.8944144 Z" id="path5632"></path>
                        <path d="M131.739568,36.9032104 L131.739568,38.200222 L119.48846,38.200222 C119.604307,40.0256425 120.154595,41.418698 121.139321,42.3794442 C122.133698,43.3305972 123.514239,43.8061597 125.280949,43.8061597 C126.304288,43.8061597 127.293837,43.6812245 128.249596,43.4314656 C129.215011,43.1815952 130.170773,42.8069848 131.116878,42.3074113 L131.116878,44.8149558 C130.161116,45.2184575 129.181221,45.5258873 128.17719,45.7372454 C127.173159,45.9486313 126.154648,46.0542963 125.121656,46.0542963 C122.534344,46.0542963 120.482838,45.3049082 118.967137,43.8061597 C117.46109,42.3074113 116.708475,40.2802259 116.708475,37.7246594 C116.708475,35.0825865 117.422475,32.9881648 118.851288,31.4413665 C120.289755,29.884947 122.225411,29.1067513 124.658255,29.1067513 C126.84009,29.1067513 128.563356,29.8080896 129.828051,31.2107941 C131.102396,32.6038775 131.739568,34.5013589 131.739568,36.9032104 Z M129.075026,36.1250146 C129.05569,34.6742882 128.645427,33.5165738 127.844121,32.6518994 C127.052484,31.787253 126.000181,31.3549158 124.687217,31.3549158 C123.200478,31.3549158 122.008192,31.7728352 121.110356,32.6086741 C120.222175,33.4445408 119.710505,34.6214417 119.575348,36.1394045 L129.075026,36.1250146 Z" id="path5636"></path>
                        <path d="M149.59491,35.8944144 L149.59491,45.6363769 L146.930364,45.6363769 L146.930364,35.980893 C146.930364,34.4533183 146.631086,33.310031 146.032529,32.551031 C145.433972,31.7920496 144.536137,31.4125589 143.339024,31.4125589 C141.900557,31.4125589 140.766195,31.868907 139.935939,32.7816034 C139.105682,33.6943183 138.690553,34.9384834 138.690553,36.5140986 L138.690553,45.6363769 L136.011528,45.6363769 L136.011528,29.4958631 L138.690553,29.4958631 L138.690553,32.0034076 C139.327727,31.0330589 140.075924,30.3077003 140.935142,29.8273318 C141.804015,29.3469448 142.803219,29.1067513 143.932753,29.1067513 C145.796003,29.1067513 147.205508,29.6832008 148.161269,30.8361 C149.11703,31.9793873 149.59491,33.6654921 149.59491,35.8944144 Z" id="path5638"></path>
                        <path d="M165.611136,37.378773 C165.611136,35.4572806 165.21049,33.9681254 164.409196,32.9113073 C163.617556,31.8544893 162.502502,31.3260803 161.064034,31.3260803 C159.635222,31.3260803 158.520168,31.8544893 157.718875,32.9113073 C156.927235,33.9681254 156.531415,35.4572806 156.531415,37.378773 C156.531415,39.2906535 156.927235,40.7750028 157.718875,41.8318208 C158.520168,42.8886389 159.635222,43.4170479 161.064034,43.4170479 C162.502502,43.4170479 163.617556,42.8886389 164.409196,41.8318208 C165.21049,40.7750028 165.611136,39.2906535 165.611136,37.378773 Z M168.275682,43.6332304 C168.275682,46.3809499 167.662643,48.4225344 166.436567,49.7579839 C165.21049,51.1030268 163.332759,51.7755482 160.803374,51.7755482 C159.866921,51.7755482 158.983567,51.7035059 158.153311,51.5594214 C157.323055,51.4250045 156.516935,51.2136465 155.734949,50.9253473 L155.734949,48.345742 C156.516935,48.768458 157.289266,49.0807031 158.051944,49.2824772 C158.81462,49.4842327 159.591778,49.5851104 160.383418,49.5851104 C162.130817,49.5851104 163.438953,49.128753 164.307827,48.216038 C165.1767,47.3129349 165.611136,45.9438718 165.611136,44.1088487 L165.611136,42.7974473 C165.060851,43.7485724 164.356099,44.4595225 163.496879,44.9302977 C162.63766,45.4010544 161.609494,45.6364327 160.41238,45.6364327 C158.423627,45.6364327 156.82104,44.8822479 155.604618,43.3738783 C154.388195,41.8655087 153.779984,39.8671589 153.779984,37.3788287 C153.779984,34.8808868 154.388195,32.877731 155.604618,31.3693614 C156.82104,29.8609918 158.423627,29.106807 160.41238,29.106807 C161.609494,29.106807 162.63766,29.3421946 163.496879,29.8129699 C164.356099,30.2837265 165.060851,30.9946766 165.611136,31.9458203 L165.611136,29.4959189 L168.275682,29.4959189 L168.275682,43.6332304 Z" id="path5640"></path>
                        <path d="M187.637059,36.9032104 L187.637059,38.200222 L175.385951,38.200222 C175.501779,40.0256332 176.052073,41.4187073 177.036834,42.3794442 C178.031197,43.3305879 179.411734,43.8061597 181.178445,43.8061597 C182.201776,43.8061597 183.191325,43.6812617 184.147092,43.4314656 C185.112498,43.1816696 186.068255,42.8069848 187.014363,42.3074113 L187.014363,44.8149558 C186.058596,45.2184668 185.078702,45.5258966 184.07468,45.7372454 C183.07064,45.9486127 182.052134,46.0542963 181.019163,46.0542963 C178.431849,46.0542963 176.380342,45.3049175 174.864641,43.8061597 C173.358592,42.307402 172.605567,40.2802352 172.605567,37.7246594 C172.605567,35.0825958 173.319976,32.9881648 174.748795,31.4413665 C176.187265,29.8849563 178.122916,29.1067513 180.555749,29.1067513 C182.737583,29.1067513 184.460845,29.8080989 185.725535,31.2107941 C186.999884,32.6038775 187.637059,34.5013496 187.637059,36.9032104 Z M184.972505,36.1250146 C184.953263,34.6742789 184.542961,33.5165738 183.741601,32.6518994 C182.949974,31.7872437 181.897681,31.3549158 180.584724,31.3549158 C179.097981,31.3549158 177.905692,31.7728352 177.007858,32.6086741 C176.119683,33.4445315 175.608013,34.6214417 175.47285,36.1394045 L184.972505,36.1250146 Z" id="path5642"></path>
                        <path d="M204.637997,32.5942563 C205.304138,31.402947 206.100604,30.5238735 207.027395,29.9570358 C207.954204,29.3901794 209.045125,29.1067513 210.300157,29.1067513 C211.989637,29.1067513 213.292952,29.6976093 214.210103,30.8793254 C215.127235,32.0514482 215.585801,33.7231445 215.585801,35.8944144 L215.585801,45.6363769 L212.906788,45.6363769 L212.906788,35.980893 C212.906788,34.4340946 212.63164,33.2860014 212.081346,32.5366132 C211.53107,31.7872437 210.69116,31.4125589 209.561614,31.4125589 C208.181077,31.4125589 207.090157,31.868907 206.288852,32.7816034 C205.487566,33.6943183 205.086924,34.9384834 205.086924,36.5140986 L205.086924,45.6363769 L202.40791,45.6363769 L202.40791,35.980893 C202.40791,34.4244828 202.132763,33.2763896 201.582468,32.5366132 C201.032174,31.7872437 200.182614,31.4125589 199.033789,31.4125589 C197.67255,31.4125589 196.591279,31.873713 195.789975,32.7960211 C194.988689,33.7087361 194.588046,34.9480952 194.588046,36.5140986 L194.588046,45.6363769 L191.909004,45.6363769 L191.909004,29.4958631 L194.588046,29.4958631 L194.588046,32.0034076 C195.196254,31.0138352 195.925138,30.2836707 196.774698,29.8129141 C197.624276,29.3421389 198.633137,29.1067513 199.801279,29.1067513 C200.97908,29.1067513 201.978282,29.4045879 202.798885,30.0002611 C203.629146,30.5959158 204.242184,31.4605808 204.637997,32.5942563 Z" id="path5644"></path>
                        <path d="M234.78788,36.9032104 L234.78788,38.200222 L222.536788,38.200222 C222.652616,40.0256332 223.202901,41.4187073 224.187643,42.3794442 C225.182025,43.3305879 226.562562,43.8061597 228.329254,43.8061597 C229.352612,43.8061597 230.342164,43.6812617 231.297912,43.4314656 C232.263337,43.1816696 233.219104,42.8069848 234.165212,42.3074113 L234.165212,44.8149558 C233.209445,45.2184668 232.229542,45.5258966 231.225501,45.7372454 C230.221479,45.9486127 229.20297,46.0542963 228.169972,46.0542963 C225.582659,46.0542963 223.531152,45.3049175 222.015451,43.8061597 C220.509409,42.307402 219.756388,40.2802352 219.756388,37.7246594 C219.756388,35.0825958 220.470793,32.9881648 221.899604,31.4413665 C223.338074,29.8849563 225.273735,29.1067513 227.706586,29.1067513 C229.888409,29.1067513 231.611666,29.8080989 232.876356,31.2107941 C234.150705,32.6038775 234.78788,34.5013496 234.78788,36.9032104 Z M232.123354,36.1250146 C232.104111,34.6742789 231.69381,33.5165738 230.892449,32.6518994 C230.100804,31.7872437 229.048498,31.3549158 227.735534,31.3549158 C226.24879,31.3549158 225.056501,31.7728352 224.158668,32.6086741 C223.270492,33.4445315 222.758823,34.6214417 222.623659,36.1394045 L232.123354,36.1250146 Z" id="path5646"></path>
                        <path d="M239.161212,29.4958631 L241.825766,29.4958631 L241.825766,45.6363769 L239.161212,45.6363769 L239.161212,29.4958631 Z M239.161212,23.212598 L241.825766,23.212598 L241.825766,26.5703992 L239.161212,26.5703992 L239.161212,23.212598 Z" id="path5648"></path>
                        <path d="M260.868562,35.8944144 L260.868562,45.6363769 L258.204008,45.6363769 L258.204008,35.980893 C258.204008,34.4533183 257.904733,33.310031 257.306183,32.551031 C256.707615,31.7920496 255.809772,31.4125589 254.612654,31.4125589 C253.174203,31.4125589 252.039847,31.868907 251.209585,32.7816034 C250.379324,33.6943183 249.964193,34.9384834 249.964193,36.5140986 L249.964193,45.6363769 L247.28518,45.6363769 L247.28518,29.4958631 L249.964193,29.4958631 L249.964193,32.0034076 C250.601377,31.0330589 251.349578,30.3077003 252.208797,29.8273318 C253.077655,29.3469448 254.076857,29.1067513 255.206402,29.1067513 C257.069642,29.1067513 258.479146,29.6832008 259.434912,30.8361 C260.390679,31.9793873 260.868562,33.6654921 260.868562,35.8944144 Z" id="path5650"></path>
                        <path d="M276.884805,31.9457645 L276.884805,23.212598 L279.549331,23.212598 L279.549331,45.6363769 L276.884805,45.6363769 L276.884805,43.215311 C276.324852,44.1760479 275.615267,44.8918039 274.756048,45.3625792 C273.906488,45.8237239 272.88315,46.0542963 271.686031,46.0542963 C269.726243,46.0542963 268.128482,45.2760913 266.892749,43.7196811 C265.666674,42.1632896 265.053636,40.1169085 265.053636,37.5805377 C265.053636,35.044167 265.666674,32.9977766 266.892749,31.4413665 C268.128482,29.8849563 269.726243,29.1067513 271.686031,29.1067513 C272.88315,29.1067513 273.906488,29.3421389 274.756048,29.8129141 C275.615267,30.2740775 276.324852,30.9850276 276.884805,31.9457645 Z M267.805061,37.5805377 C267.805061,39.530847 268.205713,41.0632369 269.007018,42.1777073 C269.817962,43.2825659 270.928191,43.8349952 272.337703,43.8349952 C273.747197,43.8349952 274.857416,43.2825659 275.668361,42.1777073 C276.479323,41.0632369 276.884805,39.530847 276.884805,37.5805377 C276.884805,35.6302285 276.479323,34.1026445 275.668361,32.9977859 C274.857416,31.8833155 273.747197,31.3260803 272.337703,31.3260803 C270.928191,31.3260803 269.817962,31.8833155 269.007018,32.9977859 C268.205713,34.1026445 267.805061,35.6302285 267.805061,37.5805377 Z" id="path5652"></path>
                        <path d="M298.910719,36.9032104 L298.910719,38.200222 L286.6596,38.200222 C286.775428,40.0256332 287.325713,41.4187073 288.310455,42.3794442 C289.304837,43.3305879 290.685383,43.8061597 292.452094,43.8061597 C293.475433,43.8061597 294.464985,43.6812617 295.420752,43.4314656 C296.386158,43.1816696 297.341915,42.8069848 298.288023,42.3074113 L298.288023,44.8149558 C297.332257,45.2184668 296.352363,45.5258966 295.348341,45.7372454 C294.3443,45.9486127 293.325781,46.0542963 292.292784,46.0542963 C289.705489,46.0542963 287.653991,45.3049175 286.138291,43.8061597 C284.63223,42.307402 283.879199,40.2802352 283.879199,37.7246594 C283.879199,35.0825958 284.593614,32.9881648 286.022444,31.4413665 C287.460895,29.8849563 289.396546,29.1067513 291.829398,29.1067513 C294.011239,29.1067513 295.734505,29.8080989 296.999196,31.2107941 C298.273545,32.6038775 298.910719,34.5013496 298.910719,36.9032104 Z M296.246165,36.1250146 C296.226923,34.6742789 295.816621,33.5165738 295.015261,32.6518994 C294.223634,31.7872437 293.171338,31.3549158 291.858373,31.3549158 C290.37163,31.3549158 289.179341,31.7728352 288.281507,32.6086741 C287.393313,33.4445315 286.881644,34.6214417 286.746499,36.1394045 L296.246165,36.1250146 Z" id="path5654"></path>
                    </g>
                    <g id="text5704" transform="translate(116.559322, 96.338028)" fill="#FFBB00">
                        <polygon id="path5722" points="0.13795387 1.27149296 2.48910461 1.27149296 2.48910461 16.6783662 10.95092 16.6783662 10.95092 18.6580563 0.13795387 18.6580563"></polygon>
                        <path d="M24.0452027,11.6009577 L24.0452027,12.6490423 L14.1983022,12.6490423 C14.2914182,14.1241221 14.7337139,15.2498404 15.5251893,16.0261972 C16.3244259,16.7947981 17.4340453,17.1790986 18.8540475,17.1790986 C19.6765622,17.1790986 20.4719181,17.0781784 21.2401154,16.876338 C22.0160739,16.6744789 22.7842721,16.3716901 23.54471,15.9679718 L23.54471,17.9942817 C22.7765127,18.3203474 21.9889161,18.5687793 21.1819202,18.7395775 C20.3749242,18.9102817 19.5562883,18.9956338 18.7260124,18.9956338 C16.6464477,18.9956338 14.9975387,18.3900751 13.7792855,17.1789577 C12.5687916,15.9678404 11.9635446,14.3297277 11.9635446,12.2646197 C11.9635446,10.129615 12.5377532,8.43714554 13.6861704,7.18721127 C14.8423469,5.92952113 16.3981417,5.30067606 18.3535547,5.30067606 C20.1072188,5.30067606 21.492303,5.86741784 22.5088073,7.00090141 C23.5330709,8.12661033 24.0452027,9.65991549 24.0452027,11.6008169 L24.0452027,11.6009577 Z M21.9035603,10.9721127 C21.8879815,9.79981221 21.5581994,8.86430047 20.9142138,8.16557746 C20.2779294,7.46685446 19.4321358,7.11749296 18.3768328,7.11749296 C17.1818576,7.11749296 16.2235504,7.45521127 15.5019112,8.13064789 C14.7880295,8.80606573 14.3767721,9.75709859 14.2681392,10.9837465 L21.9035603,10.9721127 Z" id="path5724"></path>
                        <path d="M27.5602912,5.61523944 L29.7019336,5.61523944 L29.7019336,18.6580563 L27.5602912,18.6580563 L27.5602912,5.61523944 Z M27.5602912,0.537830986 L29.7019336,0.537830986 L29.7019336,3.25121127 L27.5602912,3.25121127 L27.5602912,0.537830986 Z" id="path5726"></path>
                        <path d="M36.243254,16.7016338 L36.243254,23.6190141 L34.0899726,23.6190141 L34.0899726,5.61523944 L36.243254,5.61523944 L36.243254,7.59495775 C36.69331,6.81858216 37.2597592,6.24407512 37.9426017,5.87143662 C38.6332034,5.49102347 39.4557181,5.3008169 40.4101456,5.3008169 C41.9930982,5.3008169 43.2773079,5.92966197 44.2627747,7.18735211 C45.255999,8.44506103 45.7526112,10.0987042 45.7526112,12.1482817 C45.7526112,14.1978779 45.255999,15.8515305 44.2627747,17.1092394 C43.2773079,18.3669296 41.9930982,18.9957746 40.4101456,18.9957746 C39.4557181,18.9957746 38.6332034,18.8094554 37.9426017,18.4368169 C37.2597592,18.056385 36.69331,17.4779906 36.243254,16.7016338 Z M43.5294927,12.1482817 C43.5294927,10.5722817 43.2035911,9.33787793 42.551788,8.44507042 C41.9077424,7.54448826 41.0192713,7.09419718 39.8863748,7.09419718 C38.7534763,7.09419718 37.8611246,7.54448826 37.2093197,8.44507042 C36.5652759,9.33787793 36.243254,10.5722817 36.243254,12.1482817 C36.243254,13.7243005 36.5652759,14.9626009 37.2093197,15.8631831 C37.8611246,16.7559906 38.7534763,17.2023944 39.8863748,17.2023944 C41.0192713,17.2023944 41.9077424,16.7559906 42.551788,15.8631831 C43.2035911,14.9626009 43.5294927,13.7243005 43.5294927,12.1482817 Z" id="path5728"></path>
                        <polygon id="path5730" points="48.3714655 5.61523944 58.5442676 5.61523944 58.5442676 7.57166197 50.4898298 16.9461972 58.5442676 16.9461972 58.5442676 18.6580563 48.080481 18.6580563 48.080481 16.7016338 56.1349188 7.32709859 48.3714655 7.32709859"></polygon>
                        <path d="M61.8265668,5.61523944 L63.9682092,5.61523944 L63.9682092,18.6580563 L61.8265668,18.6580563 L61.8265668,5.61523944 Z M61.8265668,0.537830986 L63.9682092,0.537830986 L63.9682092,3.25121127 L61.8265668,3.25121127 L61.8265668,0.537830986 Z" id="path5732"></path>
                        <path d="M77.0159245,11.9852676 C77.0159245,10.4325352 76.6939035,9.22917371 76.0498617,8.3751831 C75.4135717,7.52119249 74.5173412,7.09419718 73.3611703,7.09419718 C72.2127513,7.09419718 71.3165209,7.52119249 70.672479,8.3751831 C70.036189,9.22917371 69.718044,10.4325352 69.718044,11.9852676 C69.718044,13.5302254 70.036189,14.7296995 70.672479,15.5836901 C71.3165209,16.4376808 72.2127513,16.8646761 73.3611703,16.8646761 C74.5173412,16.8646761 75.4135717,16.4376808 76.0498617,15.5836901 C76.6939035,14.7296995 77.0159245,13.5302254 77.0159245,11.9852676 Z M79.1575753,17.0393521 C79.1575753,19.2597465 78.6648447,20.9095117 77.6793835,21.9886479 C76.6939223,23.0755587 75.1846856,23.6190141 73.1516733,23.6190141 C72.3989928,23.6190141 71.6889852,23.5607981 71.0216502,23.4443662 C70.354334,23.3356338 69.7064162,23.1648263 69.0778968,22.9319437 L69.0778968,20.8474366 C69.7064162,21.1890329 70.3271837,21.4413521 70.9401994,21.6043944 C71.5531964,21.7673991 72.1778398,21.8489014 72.8141298,21.8489014 C74.218604,21.8489014 75.2700216,21.4801315 75.9683828,20.7425915 C76.6667439,20.0128075 77.0159245,18.9064977 77.0159245,17.423662 L77.0159245,16.3639155 C76.5736372,17.1325164 76.007189,17.7070235 75.3165797,18.0874366 C74.6259891,18.4678498 73.7996004,18.6580563 72.8374136,18.6580563 C71.2389367,18.6580563 69.9508435,18.0486197 68.9731342,16.8297465 C67.9954248,15.6108545 67.5065702,13.9960282 67.5065702,11.9852676 C67.5065702,9.96673239 67.9954248,8.34801878 68.9731342,7.12912676 C69.9508435,5.91025352 71.2389367,5.3008169 72.8374136,5.3008169 C73.7996004,5.3008169 74.6259891,5.49102347 75.3165797,5.87143662 C76.007189,6.25184977 76.5736372,6.82635681 77.0159245,7.59495775 L77.0159245,5.61523944 L79.1575753,5.61523944 L79.1575753,17.0393521 Z" id="path5734"></path>
                    </g>
                </g>
            </g>
        </g>
    </g>
</svg>